<svg width="296.78001098632814px" height="136.16000366210938px" xmlns="http://www.w3.org/2000/svg" viewBox="101.60999450683593 6.9199981689453125 296.78001098632814 136.16000366210938" style="background: rgba(0, 0, 0, 0);" preserveAspectRatio="xMidYMid"><defs><linearGradient id="editing-shiny-gradient" x1="0.996273075820661" x2="0.0037269241793390084" y1="0.5609346717025738" y2="0.4390653282974261" gradientUnits="objectBoundingBox"><stop offset="0.0" stop-color="#4f9fee"></stop><stop offset="0.5" stop-color="#4f9fee"></stop><stop offset="1.0" stop-color="#4f9fee"></stop></linearGradient><linearGradient id="editing-shiny-gradient2" x1="0" x2="0" y1="0" y2="1"><stop offset="0.2" stop-color="#fff" stop-opacity="0.8"></stop><stop offset="0.8" stop-color="#fff" stop-opacity="0"></stop></linearGradient><filter id="editing-shiny2" x="-100%" y="-100%" width="300%" height="300%"><feMorphology operator="erode" radius="2"></feMorphology></filter><filter id="editing-shiny" x="-100%" y="-100%" width="300%" height="300%"><feFlood flood-color="#fff" result="flood"></feFlood><feConvolveMatrix in="SourceGraphic" result="conv" order="8,8" divisor="1" kernelMatrix="0 0 0 0 0 0 0 0 0 0 0 1 1 0 0 0 0 0 0 1 1 0 0 0 0 0 1 0 0 1 0 0 0 0 1 0 0 1 0 0 0 1 0 0 0 0 1 0 0 1 1 0 0 1 1 0 0 0 0 1 1 0 0 0 "></feConvolveMatrix><feOffset dx="0" dy="4" in="conv" result="offset"></feOffset><feComposite operator="in" in="flood" in2="offset" result="comp"></feComposite><feGaussianBlur in="offset" stdDeviation="3" result="shadow"></feGaussianBlur><feColorMatrix in="shadow" type="matrix" values="0.7 0 0 0 0  0 0.7 0 0 0  0 0 0.7 0 0  0 0 0 0.3 0" result="dark-shadow"></feColorMatrix><feOffset dx="0" dy="4" in="dark-shadow" result="offset-shadow"></feOffset><feOffset dx="0" dy="2" in="conv" result="offset-2"></feOffset><feComposite operator="out" in="offset" in2="offset-2" result="edge-diff"></feComposite><feGaussianBlur in="edge-diff" stdDeviation="1" result="edge-blur"></feGaussianBlur><feColorMatrix in="edge-blur" result="edge-shadow" type="matrix" values="0 0 0 0 0  0 0 0 0 0  0 0 0 0 0  0 0 0 0.5 0"></feColorMatrix><feComposite operator="in" in="edge-shadow" in2="offset" result="edge-shadow-in"></feComposite><feOffset dx="0" dy="1" in="edge-shadow-in" result="edge-shadow-final"></feOffset><feMerge result="out"><feMergeNode in="offset-shadow"></feMergeNode><feMergeNode in="comp"></feMergeNode><feMergeNode in="edge-shadow-final"></feMergeNode><feMergeNode in="SourceGraphic"></feMergeNode></feMerge></filter></defs><g filter="url(#editing-shiny)"><g transform="translate(148.1650106906891, 100.18499946594238)"><path d="M0.51-0.36L0.51-0.36L9.71-48.18L9.71-48.18Q18.32-48.91 23.87-48.91L23.87-48.91L23.87-48.91Q29.42-48.91 33.00-48.44L33.00-48.44L33.00-48.44Q36.57-47.96 38.98-46.72L38.98-46.72L38.98-46.72Q43.80-44.38 43.80-37.96L43.80-37.96L43.80-37.96Q43.80-34.24 40.59-31.10L40.59-31.10L40.59-31.10Q37.59-28.25 34.31-27.59L34.31-27.59L34.31-27.59Q37.81-27.01 40.30-24.38L40.30-24.38L40.30-24.38Q42.92-21.61 42.92-17.30L42.92-17.30L42.92-17.30Q42.92-8.98 36.72-4.12L36.72-4.12L36.72-4.12Q30.51 0.73 18.32 0.73L18.32 0.73L18.32 0.73Q9.93 0.73 0.51-0.36ZM20.37-23.51L16.72-4.60L16.72-4.60Q17.37-4.53 17.52-4.53L17.52-4.53L18.18-4.53L18.18-4.53Q24.16-4.53 26.72-8.47L26.72-8.47L26.72-8.47Q28.62-11.53 28.62-17.15L28.62-17.15L28.62-17.15Q28.62-20.15 26.68-21.75L26.68-21.75L26.68-21.75Q24.75-23.36 20.37-23.51L20.37-23.51ZM31.46-37.89L31.46-37.89L31.46-37.89Q31.46-43.95 25.62-43.95L25.62-43.95L24.97-43.95L24.97-43.95Q24.67-43.95 24.24-43.87L24.24-43.87L21.32-28.47L22.05-28.47L22.05-28.47Q31.46-28.69 31.46-37.89ZM93.95-11.24L93.95-11.24L93.95-11.24Q95.34-9.49 95.34-6.64L95.34-6.64L95.34-6.64Q95.34-2.70 92.42-0.62L92.42-0.62L92.42-0.62Q89.50 1.46 84.90 1.46L84.90 1.46L84.90 1.46Q82.27 1.46 78.26 0.88L78.26 0.88L78.26 0.88Q70.37-0.36 67.96-0.36L67.96-0.36L67.96-0.36Q65.55-0.36 64.60-0.26L64.60-0.26L64.60-0.26Q63.66-0.15 62.12 0L62.12 0L71.10-48.18L102.56-48.18L102.56-48.18Q102.56-43.73 100.41-41.39L100.41-41.39L100.41-41.39Q98.26-39.05 94.02-39.05L94.02-39.05L94.02-39.05Q89.79-39.05 85.48-41.03L85.48-41.03L83.22-28.25L96.21-28.25L96.21-28.25Q96.21-24.38 94.32-22.23L94.32-22.23L94.32-22.23Q92.42-20.07 89.24-20.07L89.24-20.07L89.24-20.07Q86.07-20.07 84.10-20.80L84.10-20.80L84.10-20.80Q82.13-21.54 81.91-21.75L81.91-21.75L79.28-7.96L79.28-7.96Q81.03-7.74 84.31-7.74L84.31-7.74L84.31-7.74Q89.94-7.74 93.95-11.24ZM116.36-0.36L116.36-0.36L125.56-48.18L125.56-48.18Q134.17-48.91 139.72-48.91L139.72-48.91L139.72-48.91Q145.27-48.91 148.85-48.44L148.85-48.44L148.85-48.44Q152.42-47.96 154.83-46.72L154.83-46.72L154.83-46.72Q159.65-44.38 159.65-37.96L159.65-37.96L159.65-37.96Q159.65-34.24 156.44-31.10L156.44-31.10L156.44-31.10Q153.45-28.25 150.16-27.59L150.16-27.59L150.16-27.59Q153.66-27.01 156.15-24.38L156.15-24.38L156.15-24.38Q158.77-21.61 158.77-17.30L158.77-17.30L158.77-17.30Q158.77-8.98 152.57-4.12L152.57-4.12L152.57-4.12Q146.36 0.73 134.17 0.73L134.17 0.73L134.17 0.73Q125.78 0.73 116.36-0.36ZM136.22-23.51L132.57-4.60L132.57-4.60Q133.22-4.53 133.37-4.53L133.37-4.53L134.03-4.53L134.03-4.53Q140.01-4.53 142.57-8.47L142.57-8.47L142.57-8.47Q144.47-11.53 144.47-17.15L144.47-17.15L144.47-17.15Q144.47-20.15 142.53-21.75L142.53-21.75L142.53-21.75Q140.60-23.36 136.22-23.51L136.22-23.51ZM147.31-37.89L147.31-37.89L147.31-37.89Q147.31-43.95 141.47-43.95L141.47-43.95L140.82-43.95L140.82-43.95Q140.52-43.95 140.09-43.87L140.09-43.87L137.17-28.47L137.90-28.47L137.90-28.47Q147.31-28.69 147.31-37.89ZM193.74 0L177.83 0L187.10-48.18L203.16-48.18L193.74 0Z" fill="url(#editing-shiny-gradient)"></path></g></g><g filter="url(#editing-shiny2)"><g transform="translate(148.29397797584534, 100.18499565124512)"><path d="M0.51-0.36L0.51-0.36L9.71-48.18L9.71-48.18Q18.32-48.91 23.87-48.91L23.87-48.91L23.87-48.91Q29.42-48.91 33.00-48.44L33.00-48.44L33.00-48.44Q36.57-47.96 38.98-46.72L38.98-46.72L38.98-46.72Q43.80-44.38 43.80-37.96L43.80-37.96L43.80-37.96Q43.80-34.24 40.59-31.10L40.59-31.10L40.59-31.10Q37.59-28.25 34.31-27.59L34.31-27.59L34.31-27.59Q37.81-27.01 40.30-24.38L40.30-24.38L40.30-24.38Q42.92-21.61 42.92-17.30L42.92-17.30L42.92-17.30Q42.92-8.98 36.72-4.12L36.72-4.12L36.72-4.12Q30.51 0.73 18.32 0.73L18.32 0.73L18.32 0.73Q9.93 0.73 0.51-0.36ZM20.37-23.51L16.72-4.60L16.72-4.60Q17.37-4.53 17.52-4.53L17.52-4.53L18.18-4.53L18.18-4.53Q24.16-4.53 26.72-8.47L26.72-8.47L26.72-8.47Q28.62-11.53 28.62-17.15L28.62-17.15L28.62-17.15Q28.62-20.15 26.68-21.75L26.68-21.75L26.68-21.75Q24.75-23.36 20.37-23.51L20.37-23.51ZM31.46-37.89L31.46-37.89L31.46-37.89Q31.46-43.95 25.62-43.95L25.62-43.95L24.97-43.95L24.97-43.95Q24.67-43.95 24.24-43.87L24.24-43.87L21.32-28.47L22.05-28.47L22.05-28.47Q31.46-28.69 31.46-37.89ZM93.95-11.24L93.95-11.24L93.95-11.24Q95.34-9.49 95.34-6.64L95.34-6.64L95.34-6.64Q95.34-2.70 92.42-0.62L92.42-0.62L92.42-0.62Q89.50 1.46 84.90 1.46L84.90 1.46L84.90 1.46Q82.27 1.46 78.26 0.88L78.26 0.88L78.26 0.88Q70.37-0.36 67.96-0.36L67.96-0.36L67.96-0.36Q65.55-0.36 64.60-0.26L64.60-0.26L64.60-0.26Q63.66-0.15 62.12 0L62.12 0L71.10-48.18L102.56-48.18L102.56-48.18Q102.56-43.73 100.41-41.39L100.41-41.39L100.41-41.39Q98.26-39.05 94.02-39.05L94.02-39.05L94.02-39.05Q89.79-39.05 85.48-41.03L85.48-41.03L83.22-28.25L96.21-28.25L96.21-28.25Q96.21-24.38 94.32-22.23L94.32-22.23L94.32-22.23Q92.42-20.07 89.24-20.07L89.24-20.07L89.24-20.07Q86.07-20.07 84.10-20.80L84.10-20.80L84.10-20.80Q82.13-21.54 81.91-21.75L81.91-21.75L79.28-7.96L79.28-7.96Q81.03-7.74 84.31-7.74L84.31-7.74L84.31-7.74Q89.94-7.74 93.95-11.24ZM116.36-0.36L116.36-0.36L125.56-48.18L125.56-48.18Q134.17-48.91 139.72-48.91L139.72-48.91L139.72-48.91Q145.27-48.91 148.85-48.44L148.85-48.44L148.85-48.44Q152.42-47.96 154.83-46.72L154.83-46.72L154.83-46.72Q159.65-44.38 159.65-37.96L159.65-37.96L159.65-37.96Q159.65-34.24 156.44-31.10L156.44-31.10L156.44-31.10Q153.45-28.25 150.16-27.59L150.16-27.59L150.16-27.59Q153.66-27.01 156.15-24.38L156.15-24.38L156.15-24.38Q158.77-21.61 158.77-17.30L158.77-17.30L158.77-17.30Q158.77-8.98 152.57-4.12L152.57-4.12L152.57-4.12Q146.36 0.73 134.17 0.73L134.17 0.73L134.17 0.73Q125.78 0.73 116.36-0.36ZM136.22-23.51L132.57-4.60L132.57-4.60Q133.22-4.53 133.37-4.53L133.37-4.53L134.03-4.53L134.03-4.53Q140.01-4.53 142.57-8.47L142.57-8.47L142.57-8.47Q144.47-11.53 144.47-17.15L144.47-17.15L144.47-17.15Q144.47-20.15 142.53-21.75L142.53-21.75L142.53-21.75Q140.60-23.36 136.22-23.51L136.22-23.51ZM147.31-37.89L147.31-37.89L147.31-37.89Q147.31-43.95 141.47-43.95L141.47-43.95L140.82-43.95L140.82-43.95Q140.52-43.95 140.09-43.87L140.09-43.87L137.17-28.47L137.90-28.47L137.90-28.47Q147.31-28.69 147.31-37.89ZM193.74 0L177.83 0L187.10-48.18L203.16-48.18L193.74 0Z" fill="url(#editing-shiny-gradient2)"></path></g></g><style>text {
  font-size: 64px;
  font-family: Arial Black;
  dominant-baseline: central;
  text-anchor: middle;
}</style></svg>