<svg width="235.4300109863281px" height="136.16000366210938px" xmlns="http://www.w3.org/2000/svg" viewBox="132.28499450683594 6.9199981689453125 235.4300109863281 136.16000366210938" style="background: rgba(0, 0, 0, 0);" preserveAspectRatio="xMidYMid"><defs><linearGradient id="editing-shiny-gradient" x1="0.996273075820661" x2="0.0037269241793390084" y1="0.5609346717025738" y2="0.4390653282974261" gradientUnits="objectBoundingBox"><stop offset="0.0" stop-color="#4f9fee"></stop><stop offset="0.5" stop-color="#eef5ff"></stop><stop offset="1.0" stop-color="#4f9fee"></stop></linearGradient><linearGradient id="editing-shiny-gradient2" x1="0" x2="0" y1="0" y2="1"><stop offset="0.2" stop-color="#fff" stop-opacity="0.8"></stop><stop offset="0.8" stop-color="#fff" stop-opacity="0"></stop></linearGradient><filter id="editing-shiny2" x="-100%" y="-100%" width="300%" height="300%"><feMorphology operator="erode" radius="2"></feMorphology></filter><filter id="editing-shiny" x="-100%" y="-100%" width="300%" height="300%"><feFlood flood-color="#fff" result="flood"></feFlood><feConvolveMatrix in="SourceGraphic" result="conv" order="8,8" divisor="1" kernelMatrix="0 0 0 0 0 0 0 0 0 0 0 1 1 0 0 0 0 0 0 1 1 0 0 0 0 0 1 0 0 1 0 0 0 0 1 0 0 1 0 0 0 1 0 0 0 0 1 0 0 1 1 0 0 1 1 0 0 0 0 1 1 0 0 0 "></feConvolveMatrix><feOffset dx="0" dy="4" in="conv" result="offset"></feOffset><feComposite operator="in" in="flood" in2="offset" result="comp"></feComposite><feGaussianBlur in="offset" stdDeviation="3" result="shadow"></feGaussianBlur><feColorMatrix in="shadow" type="matrix" values="0.7 0 0 0 0  0 0.7 0 0 0  0 0 0.7 0 0  0 0 0 0.3 0" result="dark-shadow"></feColorMatrix><feOffset dx="0" dy="4" in="dark-shadow" result="offset-shadow"></feOffset><feOffset dx="0" dy="2" in="conv" result="offset-2"></feOffset><feComposite operator="out" in="offset" in2="offset-2" result="edge-diff"></feComposite><feGaussianBlur in="edge-diff" stdDeviation="1" result="edge-blur"></feGaussianBlur><feColorMatrix in="edge-blur" result="edge-shadow" type="matrix" values="0 0 0 0 0  0 0 0 0 0  0 0 0 0 0  0 0 0 0.5 0"></feColorMatrix><feComposite operator="in" in="edge-shadow" in2="offset" result="edge-shadow-in"></feComposite><feOffset dx="0" dy="1" in="edge-shadow-in" result="edge-shadow-final"></feOffset><feMerge result="out"><feMergeNode in="offset-shadow"></feMergeNode><feMergeNode in="comp"></feMergeNode><feMergeNode in="edge-shadow-final"></feMergeNode><feMergeNode in="SourceGraphic"></feMergeNode></feMerge></filter></defs><g filter="url(#editing-shiny)"><g transform="translate(170.72001099586487, 100.18499946594238)"><path d="M0.51-0.36L0.51-0.36L9.71-48.18L9.71-48.18Q18.32-48.91 23.87-48.91L23.87-48.91L23.87-48.91Q29.42-48.91 33.00-48.44L33.00-48.44L33.00-48.44Q36.57-47.96 38.98-46.72L38.98-46.72L38.98-46.72Q43.80-44.38 43.80-37.96L43.80-37.96L43.80-37.96Q43.80-34.24 40.59-31.10L40.59-31.10L40.59-31.10Q37.59-28.25 34.31-27.59L34.31-27.59L34.31-27.59Q37.81-27.01 40.30-24.38L40.30-24.38L40.30-24.38Q42.92-21.61 42.92-17.30L42.92-17.30L42.92-17.30Q42.92-8.98 36.72-4.12L36.72-4.12L36.72-4.12Q30.51 0.73 18.32 0.73L18.32 0.73L18.32 0.73Q9.93 0.73 0.51-0.36ZM20.37-23.51L16.72-4.60L16.72-4.60Q17.37-4.53 17.52-4.53L17.52-4.53L18.18-4.53L18.18-4.53Q24.16-4.53 26.72-8.47L26.72-8.47L26.72-8.47Q28.62-11.53 28.62-17.15L28.62-17.15L28.62-17.15Q28.62-20.15 26.68-21.75L26.68-21.75L26.68-21.75Q24.75-23.36 20.37-23.51L20.37-23.51ZM31.46-37.89L31.46-37.89L31.46-37.89Q31.46-43.95 25.62-43.95L25.62-43.95L24.97-43.95L24.97-43.95Q24.67-43.95 24.24-43.87L24.24-43.87L21.32-28.47L22.05-28.47L22.05-28.47Q31.46-28.69 31.46-37.89ZM78.91-11.24L78.91-11.24L78.91-11.24Q80.30-9.49 80.30-6.64L80.30-6.64L80.30-6.64Q80.30-2.70 77.38-0.62L77.38-0.62L77.38-0.62Q74.46 1.46 69.86 1.46L69.86 1.46L69.86 1.46Q67.23 1.46 63.22 0.88L63.22 0.88L63.22 0.88Q55.33-0.36 52.92-0.36L52.92-0.36L52.92-0.36Q50.52-0.36 49.57-0.26L49.57-0.26L49.57-0.26Q48.62-0.15 47.09 0L47.09 0L56.06-48.18L87.53-48.18L87.53-48.18Q87.53-43.73 85.37-41.39L85.37-41.39L85.37-41.39Q83.22-39.05 78.99-39.05L78.99-39.05L78.99-39.05Q74.75-39.05 70.44-41.03L70.44-41.03L68.18-28.25L81.18-28.25L81.18-28.25Q81.18-24.38 79.28-22.23L79.28-22.23L79.28-22.23Q77.38-20.07 74.20-20.07L74.20-20.07L74.20-20.07Q71.03-20.07 69.06-20.80L69.06-20.80L69.06-20.80Q67.09-21.54 66.87-21.75L66.87-21.75L64.24-7.96L64.24-7.96Q65.99-7.74 69.28-7.74L69.28-7.74L69.28-7.74Q74.90-7.74 78.91-11.24ZM86.29-0.36L86.29-0.36L95.48-48.18L95.48-48.18Q104.10-48.91 109.65-48.91L109.65-48.91L109.65-48.91Q115.19-48.91 118.77-48.44L118.77-48.44L118.77-48.44Q122.35-47.96 124.76-46.72L124.76-46.72L124.76-46.72Q129.57-44.38 129.57-37.96L129.57-37.96L129.57-37.96Q129.57-34.24 126.36-31.10L126.36-31.10L126.36-31.10Q123.37-28.25 120.09-27.59L120.09-27.59L120.09-27.59Q123.59-27.01 126.07-24.38L126.07-24.38L126.07-24.38Q128.70-21.61 128.70-17.30L128.70-17.30L128.70-17.30Q128.70-8.98 122.49-4.12L122.49-4.12L122.49-4.12Q116.29 0.73 104.10 0.73L104.10 0.73L104.10 0.73Q95.70 0.73 86.29-0.36ZM106.14-23.51L102.49-4.60L102.49-4.60Q103.15-4.53 103.30-4.53L103.30-4.53L103.95-4.53L103.95-4.53Q109.94-4.53 112.49-8.47L112.49-8.47L112.49-8.47Q114.39-11.53 114.39-17.15L114.39-17.15L114.39-17.15Q114.39-20.15 112.46-21.75L112.46-21.75L112.46-21.75Q110.52-23.36 106.14-23.51L106.14-23.51ZM117.24-37.89L117.24-37.89L117.24-37.89Q117.24-43.95 111.40-43.95L111.40-43.95L110.74-43.95L110.74-43.95Q110.45-43.95 110.01-43.87L110.01-43.87L107.09-28.47L107.82-28.47L107.82-28.47Q117.24-28.69 117.24-37.89ZM148.63 0L132.71 0L141.99-48.18L158.05-48.18L148.63 0Z" fill="url(#editing-shiny-gradient)"></path></g></g><g filter="url(#editing-shiny2)"><g transform="translate(170.8507559299469, 100.18499565124512)"><path d="M0.51-0.36L0.51-0.36L9.71-48.18L9.71-48.18Q18.32-48.91 23.87-48.91L23.87-48.91L23.87-48.91Q29.42-48.91 33.00-48.44L33.00-48.44L33.00-48.44Q36.57-47.96 38.98-46.72L38.98-46.72L38.98-46.72Q43.80-44.38 43.80-37.96L43.80-37.96L43.80-37.96Q43.80-34.24 40.59-31.10L40.59-31.10L40.59-31.10Q37.59-28.25 34.31-27.59L34.31-27.59L34.31-27.59Q37.81-27.01 40.30-24.38L40.30-24.38L40.30-24.38Q42.92-21.61 42.92-17.30L42.92-17.30L42.92-17.30Q42.92-8.98 36.72-4.12L36.72-4.12L36.72-4.12Q30.51 0.73 18.32 0.73L18.32 0.73L18.32 0.73Q9.93 0.73 0.51-0.36ZM20.37-23.51L16.72-4.60L16.72-4.60Q17.37-4.53 17.52-4.53L17.52-4.53L18.18-4.53L18.18-4.53Q24.16-4.53 26.72-8.47L26.72-8.47L26.72-8.47Q28.62-11.53 28.62-17.15L28.62-17.15L28.62-17.15Q28.62-20.15 26.68-21.75L26.68-21.75L26.68-21.75Q24.75-23.36 20.37-23.51L20.37-23.51ZM31.46-37.89L31.46-37.89L31.46-37.89Q31.46-43.95 25.62-43.95L25.62-43.95L24.97-43.95L24.97-43.95Q24.67-43.95 24.24-43.87L24.24-43.87L21.32-28.47L22.05-28.47L22.05-28.47Q31.46-28.69 31.46-37.89ZM78.91-11.24L78.91-11.24L78.91-11.24Q80.30-9.49 80.30-6.64L80.30-6.64L80.30-6.64Q80.30-2.70 77.38-0.62L77.38-0.62L77.38-0.62Q74.46 1.46 69.86 1.46L69.86 1.46L69.86 1.46Q67.23 1.46 63.22 0.88L63.22 0.88L63.22 0.88Q55.33-0.36 52.92-0.36L52.92-0.36L52.92-0.36Q50.52-0.36 49.57-0.26L49.57-0.26L49.57-0.26Q48.62-0.15 47.09 0L47.09 0L56.06-48.18L87.53-48.18L87.53-48.18Q87.53-43.73 85.37-41.39L85.37-41.39L85.37-41.39Q83.22-39.05 78.99-39.05L78.99-39.05L78.99-39.05Q74.75-39.05 70.44-41.03L70.44-41.03L68.18-28.25L81.18-28.25L81.18-28.25Q81.18-24.38 79.28-22.23L79.28-22.23L79.28-22.23Q77.38-20.07 74.20-20.07L74.20-20.07L74.20-20.07Q71.03-20.07 69.06-20.80L69.06-20.80L69.06-20.80Q67.09-21.54 66.87-21.75L66.87-21.75L64.24-7.96L64.24-7.96Q65.99-7.74 69.28-7.74L69.28-7.74L69.28-7.74Q74.90-7.74 78.91-11.24ZM86.29-0.36L86.29-0.36L95.48-48.18L95.48-48.18Q104.10-48.91 109.65-48.91L109.65-48.91L109.65-48.91Q115.19-48.91 118.77-48.44L118.77-48.44L118.77-48.44Q122.35-47.96 124.76-46.72L124.76-46.72L124.76-46.72Q129.57-44.38 129.57-37.96L129.57-37.96L129.57-37.96Q129.57-34.24 126.36-31.10L126.36-31.10L126.36-31.10Q123.37-28.25 120.09-27.59L120.09-27.59L120.09-27.59Q123.59-27.01 126.07-24.38L126.07-24.38L126.07-24.38Q128.70-21.61 128.70-17.30L128.70-17.30L128.70-17.30Q128.70-8.98 122.49-4.12L122.49-4.12L122.49-4.12Q116.29 0.73 104.10 0.73L104.10 0.73L104.10 0.73Q95.70 0.73 86.29-0.36ZM106.14-23.51L102.49-4.60L102.49-4.60Q103.15-4.53 103.30-4.53L103.30-4.53L103.95-4.53L103.95-4.53Q109.94-4.53 112.49-8.47L112.49-8.47L112.49-8.47Q114.39-11.53 114.39-17.15L114.39-17.15L114.39-17.15Q114.39-20.15 112.46-21.75L112.46-21.75L112.46-21.75Q110.52-23.36 106.14-23.51L106.14-23.51ZM117.24-37.89L117.24-37.89L117.24-37.89Q117.24-43.95 111.40-43.95L111.40-43.95L110.74-43.95L110.74-43.95Q110.45-43.95 110.01-43.87L110.01-43.87L107.09-28.47L107.82-28.47L107.82-28.47Q117.24-28.69 117.24-37.89ZM148.63 0L132.71 0L141.99-48.18L158.05-48.18L148.63 0Z" fill="url(#editing-shiny-gradient2)"></path></g></g><style>text {
  font-size: 64px;
  font-family: Arial Black;
  dominant-baseline: central;
  text-anchor: middle;
}</style></svg>